ibm2401
version=1
nRows=52
nColumns=19
inDegrees=yes
endheader
time	ground_force1_vx	ground_force1_vy	ground_force1_vz	ground_force1_px	ground_force1_py	ground_force1_pz	ground_torque1_x	ground_torque1_y	ground_torque1_z	ground_force2_vx	ground_force2_vy	ground_force2_vz	ground_force2_px	ground_force2_py	ground_force2_pz	ground_torque2_x	ground_torque2_y	ground_torque2_z
0.875000	51.714478	643.377686	-36.231380	0.184549	0.000000	-0.140537	-0.000001	10.080627	0.000005	-41.309811	613.573608	-95.357971	-0.172520	0.000000	-0.075111	0.000005	-4.499614	0.000000	
0.876000	50.188599	640.936279	-35.926205	0.184300	0.000000	-0.139457	0.000005	9.659898	0.000004	-39.173580	616.015015	-95.357971	-0.172431	0.000000	-0.075606	0.000005	-4.204923	-0.000005	
0.877000	52.324829	645.208740	-36.536556	0.183505	0.000000	-0.140702	0.000005	9.988474	-0.000002	-39.783932	616.625366	-97.189026	-0.172607	0.000000	-0.077808	-0.000000	-4.342959	-0.000003	
0.878000	52.019653	640.936279	-33.484798	0.184110	0.000000	-0.139742	-0.000004	9.938605	0.000007	-39.783932	616.015015	-97.799377	-0.172629	0.000000	-0.076497	0.000000	-4.227961	-0.000011	
0.879000	51.409302	643.988037	-35.621029	0.183569	0.000000	-0.141161	0.000002	9.791582	-0.000003	-39.173580	619.066772	-99.630432	-0.172320	0.000000	-0.075923	0.000003	-4.185752	-0.000002	
0.880000	50.493774	642.767334	-38.367611	0.182873	0.000000	-0.141336	0.000004	10.069949	0.000009	-40.089108	617.846069	-100.240784	-0.172760	0.000000	-0.076863	0.000003	-4.502412	-0.000008	
0.881000	53.240356	642.767334	-35.315853	0.182683	0.000000	-0.141336	0.000004	9.663538	0.000008	-39.783932	619.677124	-101.156311	-0.172298	0.000000	-0.076045	0.000004	-3.922244	-0.000005	
0.882000	53.850708	643.377686	-38.367611	0.183411	0.000000	-0.142529	0.000005	9.853706	0.000003	-39.478756	619.677124	-100.851135	-0.172495	0.000000	-0.079591	0.000002	-3.849047	-0.000007	
0.883000	54.155884	634.832764	-36.231380	0.183861	0.000000	-0.140903	0.000004	9.903885	0.000005	-40.394283	622.118530	-102.682190	-0.172996	0.000000	-0.078003	-0.000000	-3.932884	-0.000003	
0.884000	55.681763	640.325928	-35.926205	0.182808	0.000000	-0.142546	-0.000001	9.852927	0.000002	-38.868404	616.625366	-102.987366	-0.172805	0.000000	-0.075432	0.000000	-3.742471	-0.000011	
0.885000	54.766235	636.663818	-35.315853	0.183188	0.000000	-0.142796	-0.000002	9.689383	0.000000	-39.173580	620.897827	-103.902893	-0.172648	0.000000	-0.079533	0.000003	-3.990616	-0.000009	
0.886000	56.292114	639.105225	-34.095150	0.182679	0.000000	-0.142438	0.000011	9.737452	0.000009	-39.478756	618.456421	-103.597717	-0.172934	0.000000	-0.075801	0.000003	-4.105971	-0.000003	
0.887000	59.038696	634.832764	-35.926205	0.182899	0.000000	-0.143211	0.000011	9.731798	0.000004	-38.868404	618.456421	-104.818420	-0.172934	0.000000	-0.074616	0.000006	-4.195745	-0.000003	
0.888000	58.123169	643.988037	-34.400326	0.182242	0.000000	-0.144857	0.000009	9.054470	-0.000002	-39.173580	620.897827	-104.818420	-0.173238	0.000000	-0.077764	-0.000000	-3.501620	-0.000014	
0.889000	59.954224	636.663818	-32.569271	0.182805	0.000000	-0.144234	0.000007	9.791110	0.000002	-38.868404	621.508179	-103.902893	-0.173018	0.000000	-0.077294	0.000001	-3.896262	-0.000008	
0.890000	61.480103	635.443115	-33.484798	0.182676	0.000000	-0.144417	0.000003	9.889140	-0.000001	-39.173580	618.456421	-104.818420	-0.172737	0.000000	-0.076689	0.000002	-3.949029	-0.000002	
0.891000	59.038696	640.325928	-34.400326	0.181854	0.000000	-0.145691	0.000004	9.316119	0.000006	-40.394283	620.897827	-105.733948	-0.172844	0.000000	-0.078648	0.000001	-3.961005	-0.000001	
0.892000	62.700806	639.715576	-34.400326	0.181694	0.000000	-0.145354	0.000002	9.801618	0.000007	-40.089108	620.897827	-106.039124	-0.173041	0.000000	-0.078059	0.000004	-3.883882	-0.000003	
0.893000	63.005981	637.884521	-33.484798	0.181402	0.000000	-0.144913	0.000001	9.532333	0.000014	-40.089108	620.897827	-105.733948	-0.173238	0.000000	-0.078943	0.000002	-3.862174	-0.000014	
0.894000	64.531860	637.274170	-31.348570	0.181815	0.000000	-0.146298	0.000008	9.562920	0.000013	-39.478756	620.897827	-105.428772	-0.172844	0.000000	-0.078943	0.000002	-3.739737	-0.000001	
0.895000	62.700806	639.715576	-34.400326	0.180931	0.000000	-0.146785	0.000005	9.777179	0.000007	-40.089108	619.677124	-105.123596	-0.172889	0.000000	-0.079000	0.000001	-3.992205	-0.000011	
0.896000	61.785278	633.001709	-33.484798	0.181259	0.000000	-0.147099	0.000003	9.326431	0.000007	-40.089108	620.287476	-105.428772	-0.172867	0.000000	-0.077053	0.000000	-3.708670	-0.000006	
0.897000	65.142212	633.612061	-31.958921	0.180843	0.000000	-0.146571	0.000003	9.657184	0.000005	-40.089108	620.897827	-105.428772	-0.173041	0.000000	-0.077469	0.000003	-3.801912	-0.000003	
0.898000	66.973267	630.560303	-31.653746	0.180412	0.000000	-0.148350	0.000011	9.610971	0.000008	-40.089108	620.897827	-105.123596	-0.172451	0.000000	-0.079238	0.000002	-3.661943	-0.000007	
0.899000	66.973267	631.170654	-30.433043	0.181349	0.000000	-0.147239	0.000001	9.585266	0.000010	-40.394283	621.508179	-106.039124	-0.172625	0.000000	-0.078178	-0.000000	-3.597547	-0.000005	
0.900000	65.752563	636.663818	-30.738218	0.180504	0.000000	-0.147973	0.000007	9.182718	0.000002	-40.394283	619.677124	-106.344299	-0.172692	0.000000	-0.079887	0.000004	-3.450999	-0.000009	
0.901000	68.193970	633.001709	-32.264095	0.180295	0.000000	-0.147967	0.000005	9.530602	0.000003	-40.394283	616.625366	-106.039124	-0.173201	0.000000	-0.078995	0.000002	-3.533972	0.000002	
0.902000	68.193970	633.612061	-32.569271	0.180843	0.000000	-0.149172	0.000006	9.475540	0.000005	-40.394283	618.456421	-105.733948	-0.172737	0.000000	-0.079354	-0.000000	-3.646525	-0.000002	
0.903000	70.025024	633.001709	-29.517515	0.180487	0.000000	-0.149124	-0.000001	9.648615	0.000008	-40.394283	616.015015	-105.428772	-0.173025	0.000000	-0.080659	0.000001	-3.525699	-0.000004	
0.904000	68.804321	632.391357	-27.991636	0.180131	0.000000	-0.148497	0.000003	9.482832	0.000011	-40.394283	616.625366	-104.513245	-0.173003	0.000000	-0.078401	0.000003	-3.410320	-0.000009	
0.905000	69.719849	637.274170	-27.991636	0.178942	0.000000	-0.150033	0.000004	9.297136	0.000008	-41.309811	614.183960	-104.818420	-0.172895	0.000000	-0.080601	0.000000	-3.243439	0.000002	
0.906000	68.804321	630.560303	-29.517515	0.178863	0.000000	-0.149512	0.000002	9.604667	0.000007	-41.004635	613.573608	-105.733948	-0.172719	0.000000	-0.079886	0.000000	-3.330232	-0.000006	
0.907000	69.414673	633.001709	-27.686460	0.179716	0.000000	-0.148545	0.000004	9.672703	-0.000001	-41.920162	614.794312	-104.513245	-0.172078	0.000000	-0.080720	0.000002	-3.310529	-0.000003	
0.908000	70.940552	631.170654	-30.127867	0.179222	0.000000	-0.149269	0.000004	9.755999	-0.000002	-41.614986	610.521851	-105.123596	-0.173033	0.000000	-0.079885	0.000004	-3.148000	-0.000005	
0.909000	71.856079	632.391357	-27.076109	0.179745	0.000000	-0.149945	0.000011	9.769546	0.000011	-42.530514	612.352905	-103.597717	-0.172764	0.000000	-0.080543	0.000008	-3.258596	-0.000003	
0.910000	71.856079	632.391357	-29.822691	0.179166	0.000000	-0.149945	0.000011	9.650867	0.000011	-44.971920	609.911499	-105.123596	-0.172455	0.000000	-0.081266	0.000002	-3.428420	-0.000001	
0.911000	71.856079	633.001709	-26.770933	0.179909	0.000000	-0.149992	-0.000001	9.761466	0.000003	-42.530514	609.911499	-103.597717	-0.172455	0.000000	-0.081266	0.000002	-2.921172	-0.000001	
0.912000	72.771606	628.729248	-28.601988	0.179141	0.000000	-0.150241	-0.000002	9.912548	0.000012	-43.751217	608.690796	-103.292542	-0.172500	0.000000	-0.081329	0.000002	-3.244274	-0.000009	
0.913000	73.381958	631.781006	-27.381285	0.179580	0.000000	-0.151056	0.000004	9.858932	0.000002	-44.361568	608.690796	-102.682190	-0.172901	0.000000	-0.080727	0.000008	-3.004635	-0.000011	
0.914000	71.550903	630.560303	-29.822691	0.179638	0.000000	-0.150383	-0.000001	10.076371	0.000003	-44.666744	607.470093	-102.071838	-0.172746	0.000000	-0.082296	0.000004	-2.941166	-0.000003	
0.915000	73.381958	629.339600	-28.907164	0.179695	0.000000	-0.150579	0.000010	10.491699	0.000004	-44.666744	606.249390	-102.682190	-0.172591	0.000000	-0.081153	0.000001	-2.990134	-0.000002	
0.916000	72.771606	634.832764	-24.024351	0.179246	0.000000	-0.151287	0.000005	9.980221	0.000011	-44.971920	605.639038	-100.240784	-0.173017	0.000000	-0.083149	0.000005	-3.015704	-0.000000	
0.917000	71.245728	631.781006	-27.381285	0.178807	0.000000	-0.151926	0.000001	10.039616	0.000003	-46.192623	604.418335	-100.851135	-0.172457	0.000000	-0.082004	-0.000000	-2.985753	-0.000000	
0.918000	73.076782	633.001709	-27.381285	0.179138	0.000000	-0.152306	0.000007	10.015526	0.000013	-45.277096	605.028687	-101.461487	-0.172636	0.000000	-0.082729	0.000002	-2.876809	-0.000004	
0.919000	74.907837	633.612061	-27.381285	0.178531	0.000000	-0.150906	0.000009	10.189298	0.000001	-44.666744	601.976929	-99.630432	-0.172751	0.000000	-0.082134	0.000007	-2.618668	-0.000012	
0.920000	72.771606	633.001709	-27.381285	0.178752	0.000000	-0.152884	0.000011	10.131719	0.000004	-46.497799	603.807983	-99.020081	-0.172278	0.000000	-0.084918	0.000008	-2.644307	-0.000007	
0.921000	71.550903	633.612061	-30.738218	0.177376	0.000000	-0.152640	0.000005	10.055585	0.000004	-46.802975	602.587280	-100.240784	-0.172526	0.000000	-0.082861	0.000004	-2.736141	-0.000004	
0.922000	71.856079	633.612061	-29.822691	0.178146	0.000000	-0.152351	0.000011	10.179970	0.000002	-45.277096	603.807983	-101.461487	-0.172480	0.000000	-0.084008	0.000003	-2.528366	-0.000005	
0.923000	71.245728	634.832764	-29.212339	0.178669	0.000000	-0.152729	0.000002	10.031097	-0.000003	-46.497799	601.976929	-103.597717	-0.172143	0.000000	-0.083351	0.000003	-2.622044	-0.000007	
0.924000	73.076782	636.053467	-25.855406	0.178038	0.000000	-0.153969	0.000002	9.821083	0.000003	-47.718502	601.366577	-102.987366	-0.172165	0.000000	-0.086886	-0.000000	-2.401428	-0.000005	
0.925000	73.076782	635.443115	-28.907164	0.177489	0.000000	-0.153638	0.000005	10.098091	0.000004	-47.108150	601.976929	-102.987366	-0.172751	0.000000	-0.084263	-0.000000	-2.516287	-0.000012	
0.926000	72.161255	637.884521	-25.855406	0.176809	0.000000	-0.154386	-0.000000	9.626493	0.000002	-47.413326	603.197632	-103.292542	-0.173312	0.000000	-0.085105	-0.000000	-2.485060	-0.000002	
